<svg width="28" height="32" viewBox="0 0 28 32" fill="none" xmlns="http://www.w3.org/2000/svg">
<circle cx="14" cy="14" r="14" fill="white"/>
<path d="M16.3833 9.11426C15.0545 9.11426 13.7801 9.64214 12.8404 10.5818C11.9008 11.5214 11.3729 12.7958 11.3729 14.1247V16.9143H8.69166C8.55704 16.9143 8.44791 17.0234 8.44791 17.158V20.8413C8.44791 20.976 8.55704 21.0851 8.69166 21.0851H11.3729V28.6413C11.3729 28.776 11.482 28.8851 11.6167 28.8851H15.3C15.4346 28.8851 15.5437 28.776 15.5437 28.6413V21.0851H18.2487C18.3606 21.0851 18.4581 21.009 18.4852 20.9005L19.4061 17.2171C19.4445 17.0633 19.3282 16.9143 19.1696 16.9143H15.5437V14.1247C15.5437 13.902 15.6322 13.6885 15.7897 13.531C15.9471 13.3735 16.1607 13.2851 16.3833 13.2851H19.2C19.3346 13.2851 19.4437 13.176 19.4437 13.0413V9.35801C19.4437 9.22339 19.3346 9.11426 19.2 9.11426H16.3833Z" fill="#343967"/>
</svg>
