<svg width="31" height="31" viewBox="0 0 31 31" fill="none" xmlns="http://www.w3.org/2000/svg">
<path d="M15.5 11.3016C13.1816 11.3016 11.3021 13.1811 11.3021 15.4996C11.3021 17.818 13.1816 19.6975 15.5 19.6975C17.8184 19.6975 19.6979 17.818 19.6979 15.4996C19.6979 13.1811 17.8184 11.3016 15.5 11.3016Z" fill="white"/>
<path fill-rule="evenodd" clip-rule="evenodd" d="M8.74399 3.97978C13.1978 3.482 17.8022 3.482 22.256 3.97978C24.7081 4.25384 26.6859 6.18589 26.9737 8.64658C27.5063 13.1997 27.5063 17.7994 26.9737 22.3525C26.6859 24.8132 24.7081 26.7453 22.256 27.0193C17.8022 27.5171 13.1978 27.5171 8.74399 27.0193C6.29189 26.7453 4.3141 24.8132 4.0263 22.3525C3.49377 17.7994 3.49377 13.1997 4.0263 8.64658C4.3141 6.18588 6.29189 4.25384 8.74399 3.97978ZM21.9583 7.74955C21.245 7.74955 20.6667 8.32785 20.6667 9.04122C20.6667 9.75459 21.245 10.3329 21.9583 10.3329C22.6717 10.3329 23.25 9.75459 23.25 9.04122C23.25 8.32785 22.6717 7.74955 21.9583 7.74955ZM9.36458 15.4996C9.36458 12.1111 12.1115 9.36413 15.5 9.36413C18.8885 9.36413 21.6354 12.1111 21.6354 15.4996C21.6354 18.888 18.8885 21.635 15.5 21.635C12.1115 21.635 9.36458 18.888 9.36458 15.4996Z" fill="white"/>
</svg>
