<svg width="23" height="23" viewBox="0 0 23 23" fill="none" xmlns="http://www.w3.org/2000/svg">
<rect width="23" height="23" rx="3" fill="white"/>
<path d="M4.95833 3.5625C3.98033 3.5625 3.1875 4.35533 3.1875 5.33333C3.1875 6.31134 3.98033 7.10417 4.95833 7.10417C5.93634 7.10417 6.72917 6.31134 6.72917 5.33333C6.72917 4.35533 5.93634 3.5625 4.95833 3.5625Z" fill="#343967"/>
<path d="M3.29167 8.5625C3.23414 8.5625 3.1875 8.60914 3.1875 8.66667V19.5C3.1875 19.5575 3.23414 19.6042 3.29167 19.6042H6.625C6.68253 19.6042 6.72917 19.5575 6.72917 19.5V8.66667C6.72917 8.60914 6.68253 8.5625 6.625 8.5625H3.29167Z" fill="#343967"/>
<path d="M8.70833 8.5625C8.6508 8.5625 8.60417 8.60914 8.60417 8.66667V19.5C8.60417 19.5575 8.6508 19.6042 8.70833 19.6042H12.0417C12.0992 19.6042 12.1458 19.5575 12.1458 19.5V13.6667C12.1458 13.2523 12.3105 12.8548 12.6035 12.5618C12.8965 12.2688 13.2939 12.1042 13.7083 12.1042C14.1227 12.1042 14.5202 12.2688 14.8132 12.5618C15.1062 12.8548 15.2708 13.2523 15.2708 13.6667V19.5C15.2708 19.5575 15.3175 19.6042 15.375 19.6042H18.7083C18.7659 19.6042 18.8125 19.5575 18.8125 19.5V12.3169C18.8125 10.2946 17.0537 8.7125 15.0415 8.89542C14.421 8.95183 13.8075 9.10609 13.2346 9.35162L12.1458 9.81822V8.66667C12.1458 8.60914 12.0992 8.5625 12.0417 8.5625H8.70833Z" fill="#343967"/>
</svg>
