<svg width="32" height="32" viewBox="0 0 32 32" fill="none" xmlns="http://www.w3.org/2000/svg">
<path d="M29.0797 8.30266C29.1569 8.19496 29.0428 8.05591 28.9192 8.10382C28.0409 8.44426 27.123 8.67395 26.1867 8.78714C27.2292 8.16431 28.0337 7.21621 28.4798 6.09372C28.5253 5.97937 28.4004 5.87726 28.2927 5.93674C27.3237 6.47186 26.2787 6.85719 25.1932 7.07911C25.1478 7.08839 25.1009 7.07292 25.069 7.03926C24.2544 6.1797 23.1821 5.60738 22.0131 5.40961C20.8195 5.20768 19.5927 5.40762 18.5251 5.97806C17.4574 6.5485 16.6092 7.45718 16.1137 8.56159C15.6424 9.61167 15.5153 10.7822 15.7477 11.9064C15.7657 11.9936 15.6975 12.076 15.6086 12.0704C13.4965 11.9393 11.4329 11.3775 9.54487 10.419C7.66166 9.46286 5.99402 8.13278 4.64352 6.51074C4.58358 6.43875 4.46999 6.44807 4.42632 6.53093C4.00609 7.32836 3.78607 8.21715 3.78667 9.12047C3.78496 10.0197 4.00562 10.9053 4.42901 11.6986C4.85239 12.4918 5.46536 13.1681 6.21333 13.6671C5.4201 13.6456 4.64233 13.4495 3.935 13.0939C3.84384 13.0481 3.7345 13.1133 3.73924 13.2152C3.7944 14.4009 4.22967 15.5912 4.98309 16.5044C5.78485 17.4763 6.89767 18.1413 8.13333 18.3871C7.65767 18.5319 7.16383 18.6082 6.66667 18.6138C6.39608 18.6106 6.12602 18.5907 5.85805 18.554C5.75869 18.5405 5.67756 18.6348 5.71234 18.7289C6.0809 19.7256 6.732 20.5952 7.5881 21.23C8.50337 21.9087 9.60743 22.2852 10.7467 22.3071C8.82294 23.8208 6.44784 24.6469 4 24.6538C3.74847 24.6546 3.49706 24.6465 3.24624 24.6294C3.1049 24.6198 3.03989 24.8081 3.16172 24.8804C5.54675 26.2957 8.27278 27.0439 11.0533 27.0405C13.1063 27.0618 15.1428 26.6738 17.0442 25.8993C18.9455 25.1247 20.6734 23.979 22.1269 22.5291C23.5805 21.0793 24.7306 19.3543 25.5101 17.455C26.2895 15.5557 26.6827 13.5201 26.6667 11.4671V10.8274C26.6667 10.7853 26.6866 10.7457 26.7202 10.7203C27.6246 10.0375 28.4199 9.22222 29.0797 8.30266Z" fill="white"/>
</svg>
