<svg width="82" height="62" viewBox="0 0 82 62" fill="none" xmlns="http://www.w3.org/2000/svg">
<g clip-path="url(#clip0_8_5)">
<path d="M6.7237 52.3663C7.48706 52.7688 8.07571 53.3394 8.49379 54.0823C8.90979 54.8251 9.11779 55.6863 9.11779 56.6678C9.11779 57.6492 8.90979 58.5103 8.49379 59.2532C8.07779 59.996 7.48706 60.5687 6.7237 60.9692C5.96034 61.3718 5.07427 61.571 4.06339 61.571H0.0344238V51.7645H4.06339C5.07427 51.7645 5.96242 51.9658 6.7237 52.3663ZM6.05811 58.7822C6.56355 58.2593 6.81731 57.5538 6.81731 56.6678C6.81731 56.0785 6.70291 55.568 6.47411 55.1343C6.24531 54.7006 5.92083 54.3645 5.50483 54.1259C5.08883 53.8873 4.60834 53.769 4.06546 53.769H2.33907V59.5686H4.06546C4.88706 59.5665 5.55267 59.3051 6.05811 58.7822Z" fill="#55D6BE"/>
<path d="M18.2594 59.6371H23.6798V61.571H16.0275V51.7645H23.5259V53.6839H18.2594V55.6738H23.2451V57.5227H18.2594V59.6371Z" fill="#55D6BE"/>
<path d="M37.4058 52.3663C38.1691 52.7688 38.7578 53.3394 39.1759 54.0823C39.5919 54.8251 39.7999 55.6863 39.7999 56.6678C39.7999 57.6492 39.5919 58.5103 39.1759 59.2532C38.7599 59.996 38.1691 60.5687 37.4058 60.9692C36.6424 61.3718 35.7563 61.571 34.7455 61.571H30.7165V51.7645H34.7455C35.7563 51.7645 36.6424 51.9658 37.4058 52.3663ZM36.7381 58.7822C37.2435 58.2593 37.4973 57.5538 37.4973 56.6678C37.4973 56.0785 37.3829 55.568 37.1541 55.1343C36.9253 54.7006 36.6008 54.3645 36.1848 54.1259C35.7688 53.8873 35.2883 53.769 34.7455 53.769H33.0191V59.5686H34.7455C35.5691 59.5665 36.2327 59.3051 36.7381 58.7822Z" fill="#55D6BE"/>
<path d="M46.7075 51.7645H49.0101V61.571H46.7075V51.7645Z" fill="#55D6BE"/>
<path d="M60.1318 58.334H58.7985V61.5689H56.496V51.7625H61.2841C61.9955 51.7625 62.6174 51.8994 63.152 52.1754C63.6865 52.4513 64.0984 52.8415 64.3875 53.3457C64.6766 53.8499 64.8222 54.4288 64.8222 55.0825C64.8222 55.8295 64.6288 56.4686 64.2398 57.0018C63.8508 57.533 63.3017 57.9128 62.5904 58.1369L65.3713 61.5689H62.6341L60.1318 58.334ZM62.1473 54.0906C61.8811 53.8478 61.5046 53.7254 61.0179 53.7254H58.784V56.4852H61.0158C61.5129 56.4852 61.8915 56.3669 62.1536 56.1282C62.4157 55.8896 62.5467 55.5514 62.5467 55.1136C62.5467 54.6737 62.4136 54.3334 62.1473 54.0906Z" fill="#55D6BE"/>
<path d="M73.8848 61.1705C73.084 60.7451 72.4663 60.1454 72.0315 59.3715C71.5968 58.5954 71.3784 57.6949 71.3784 56.6677C71.3784 55.6406 71.5968 54.7401 72.0315 53.964C72.4663 53.188 73.084 52.5883 73.8848 52.165C74.6856 51.7396 75.6133 51.528 76.672 51.528C77.7307 51.528 78.6584 51.7396 79.4592 52.165C80.26 52.5904 80.8778 53.19 81.3125 53.964C81.7472 54.7401 81.9656 55.6406 81.9656 56.6677C81.9656 57.6949 81.7472 58.5954 81.3125 59.3715C80.8778 60.1475 80.26 60.7472 79.4592 61.1705C78.6584 61.5959 77.7287 61.8075 76.672 61.8075C75.6154 61.8075 74.6856 61.5959 73.8848 61.1705ZM78.2383 59.3777C78.6917 59.1204 79.0432 58.7593 79.2907 58.2925C79.5383 57.8256 79.6631 57.284 79.6631 56.6677C79.6631 56.0515 79.5383 55.5099 79.2907 55.043C79.0432 54.5761 78.6917 54.2151 78.2383 53.9578C77.7848 53.7005 77.2627 53.5718 76.672 53.5718C76.0813 53.5718 75.5634 53.7005 75.1141 53.9578C74.6648 54.2151 74.3154 54.5761 74.0679 55.043C73.8203 55.5099 73.6955 56.0515 73.6955 56.6677C73.6955 57.284 73.8203 57.8256 74.0679 58.2925C74.3154 58.7593 74.6648 59.1204 75.1141 59.3777C75.5634 59.635 76.0834 59.7636 76.672 59.7636C77.2607 59.7636 77.7848 59.635 78.2383 59.3777Z" fill="#55D6BE"/>
<path d="M70.1595 46.299C70.1595 46.299 53.2346 39.5594 41 49.1998C41 49.1998 55.3603 44.1099 71.0394 49.7456L70.1595 46.299Z" fill="#55D6BE"/>
<path d="M68.9157 44.3236L66.7171 40.3935C49.7922 37.1399 41.389 48.2163 41.389 48.2163C55.508 39.0551 68.9157 44.3236 68.9157 44.3236Z" fill="#55D6BE"/>
<path d="M64.6829 38.9825C64.6829 38.9825 48.1843 37.0673 41.3911 47.3033C41.4243 47.2016 42.7368 43.4106 46.8989 40.1798C50.4432 39.383 53.7546 37.9658 56.7103 36.0464C58.2391 35.7912 59.9093 35.648 61.7355 35.648L64.6829 38.9825Z" fill="#55D6BE"/>
<path d="M11.8384 46.299L10.9586 49.7456C26.6376 44.1099 40.9979 49.1998 40.9979 49.1998C28.7634 39.5594 11.8384 46.299 11.8384 46.299Z" fill="#55D6BE"/>
<path d="M40.6111 48.2163C40.6111 48.2163 32.2079 37.1399 15.2829 40.3935L13.0844 44.3236C13.0844 44.3236 26.492 39.0551 40.6111 48.2163Z" fill="#55D6BE"/>
<path d="M40.6111 47.3012C33.8178 37.0673 17.3171 38.9805 17.3171 38.9805L20.2645 35.6459C21.3627 35.6459 22.4027 35.6978 23.3907 35.7953C26.9829 38.2023 31.12 39.8644 35.5733 40.5533C39.3651 43.699 40.5778 47.2037 40.6111 47.3012Z" fill="#55D6BE"/>
<path d="M40.611 0.192474C29.1877 0.192474 19.8942 9.46358 19.8942 20.8595C19.8942 32.2554 29.1877 41.5265 40.611 41.5265C52.0344 41.5265 61.3278 32.2554 61.3278 20.8595C61.3278 9.46358 52.0344 0.192474 40.611 0.192474ZM40.611 40.4184C29.7992 40.4184 21.0049 31.6433 21.0049 20.8595C21.0049 10.0757 29.8013 1.30052 40.611 1.30052C51.4208 1.30052 60.2171 10.0757 60.2171 20.8595C60.2171 31.6433 51.4229 40.4184 40.611 40.4184Z" fill="#55D6BE"/>
<path d="M40.5361 28.2008C42.2869 28.2008 43.7061 26.785 43.7061 25.0385C43.7061 23.292 42.2869 21.8762 40.5361 21.8762C38.7854 21.8762 37.3662 23.292 37.3662 25.0385C37.3662 26.785 38.7854 28.2008 40.5361 28.2008Z" fill="#55D6BE"/>
<path d="M53.3365 22.6129C55.0872 22.6129 56.5064 21.1971 56.5064 19.4506C56.5064 17.704 55.0872 16.2883 53.3365 16.2883C51.5857 16.2883 50.1666 17.704 50.1666 19.4506C50.1666 21.1971 51.5857 22.6129 53.3365 22.6129Z" fill="#55D6BE"/>
<path d="M40.5362 39.5179C41.3024 39.5179 41.9235 38.8983 41.9235 38.1338C41.9235 37.3694 41.3024 36.7498 40.5362 36.7498C39.7699 36.7498 39.1488 37.3694 39.1488 38.1338C39.1488 38.8983 39.7699 39.5179 40.5362 39.5179Z" fill="#55D6BE"/>
<path d="M34.552 17.7926C35.6157 17.7926 36.4781 16.9323 36.4781 15.8712C36.4781 14.81 35.6157 13.9497 34.552 13.9497C33.4883 13.9497 32.6259 14.81 32.6259 15.8712C32.6259 16.9323 33.4883 17.7926 34.552 17.7926Z" fill="#55D6BE"/>
<path d="M40.5361 12.8479C41.6745 12.8479 42.5974 11.9272 42.5974 10.7916C42.5974 9.65593 41.6745 8.73526 40.5361 8.73526C39.3978 8.73526 38.4749 9.65593 38.4749 10.7916C38.4749 11.9272 39.3978 12.8479 40.5361 12.8479Z" fill="#55D6BE"/>
<path d="M32.8713 7.81811C33.8789 7.81811 34.6955 7.00347 34.6955 5.99834C34.6955 4.99321 33.8789 4.17856 32.8713 4.17856C31.864 4.17856 31.0472 4.99321 31.0472 5.99834C31.0472 7.00347 31.864 7.81811 32.8713 7.81811Z" fill="#55D6BE"/>
<path d="M26.5939 21.0691C28.2126 21.0691 29.5246 19.7601 29.5246 18.1454C29.5246 16.5306 28.2126 15.2217 26.5939 15.2217C24.9753 15.2217 23.6632 16.5306 23.6632 18.1454C23.6632 19.7601 24.9753 21.0691 26.5939 21.0691Z" fill="#55D6BE"/>
<path d="M35.5109 33.6373C36.6551 33.6373 37.5826 32.7121 37.5826 31.5706C37.5826 30.4292 36.6551 29.5039 35.5109 29.5039C34.3667 29.5039 33.4392 30.4292 33.4392 31.5706C33.4392 32.7121 34.3667 33.6373 35.5109 33.6373Z" fill="#55D6BE"/>
<path d="M27.0661 28.925C27.9576 28.925 28.6802 28.2041 28.6802 27.3148C28.6802 26.4254 27.9576 25.7046 27.0661 25.7046C26.1746 25.7046 25.452 26.4254 25.452 27.3148C25.452 28.2041 26.1746 28.925 27.0661 28.925Z" fill="#55D6BE"/>
<path d="M41.0271 38.1338H40.1951V11.3207L34.8308 16.1783L34.2733 15.5641L41.0271 9.44489V38.1338Z" fill="#55D6BE"/>
<path d="M40.5694 10.8372L32.6654 6.35937L33.0752 5.63727L40.6526 9.93044L47.8868 7.42592L48.1593 8.21027L40.5694 10.8372Z" fill="#55D6BE"/>
<path d="M35.8416 31.8238L35.1802 31.3175L39.5606 25.6237L27.1347 27.7236L26.9954 26.9039L41.5096 24.4534L35.8416 31.8238Z" fill="#55D6BE"/>
<path d="M40.5195 25.495L26.4088 18.5168L26.7791 17.7719L40.5507 24.5841L53.1035 19.407L40.7608 10.7231L41.2392 10.0446L54.8195 19.5979L40.5195 25.495Z" fill="#55D6BE"/>
<path d="M53.569 19.368L49.7733 29.7102L50.5545 29.9955L54.3503 19.6533L53.569 19.368Z" fill="#55D6BE"/>
<path d="M50.1665 32.7077C51.7507 32.7077 53.0348 31.4266 53.0348 29.8463C53.0348 28.266 51.7507 26.9849 50.1665 26.9849C48.5824 26.9849 47.2982 28.266 47.2982 29.8463C47.2982 31.4266 48.5824 32.7077 50.1665 32.7077Z" fill="#55D6BE"/>
<path d="M48.0242 9.21249C48.8514 9.21249 49.5217 8.54371 49.5217 7.71848C49.5217 6.89346 48.8514 6.22449 48.0242 6.22449C47.1971 6.22449 46.5266 6.89346 46.5266 7.71848C46.5266 8.54371 47.1971 9.21249 48.0242 9.21249Z" fill="#55D6BE"/>
</g>
<defs>
<clipPath id="clip0_8_5">
<rect width="82" height="62" fill="white"/>
</clipPath>
</defs>
</svg>
